
<svg version="1.2" xmlns="http://www.w3.org/2000/svg" viewBox="0 0 1326 1326" width="1326" height="1326"><style>.a{fill:#fff}</style><path class="a" d="m1360 0v1348h-1360v-1348z"/><path fill-rule="evenodd" d="m1197.1 128v190.2c-6-12.3-12.4-24.3-19.8-35.8q-58.5-91-168.1-139.7c-12.2-5.4-24.8-10.2-37.7-14.7zm-913.3 0v1069.1h-155.8v-1069.1zm889.4 591.4c9-13.3 16.8-27.3 23.9-41.7v470.3l-203.4-290.5q117-45.5 179.5-138.1zm-431.3 6.5h-246.9v-453.3h246.9q138.1 0 209.6 58.5c47.6 39 71.5 94.8 71.5 167.4q-0.1 108.8-71.5 168.1c-47.7 39.6-117.6 59.3-209.6 59.3zm53.6 172.2l208.6 299h-509.1v-297.4h256.6q29.3 0.1 43.9-1.6z"/></svg>