
<svg version="1.2" xmlns="http://www.w3.org/2000/svg" viewBox="0 0 2192 2271" width="500" height="518">
	<title>152132838_0f9f7070-3b44-49e4-8565-7aca8c738f69</title>
	<style>
		.s0 { fill: #000000 } 
		.s1 { fill: #006c11 } 
		.s2 { fill: #cccccc } 
		.s3 { fill: #ffffff } 
	</style>
	<g id="_Artboards_">
	</g>
	<g id="Layer 1">
		<g id="&lt;Group&gt;">
			<path id="&lt;Path&gt;" class="s0" d="m875.9 947.4c-68.8-386.3-274.5-436.4-510.8-358.4 0 0 148.7-114 359.4-68.3 0 0 21.3-276.7 245.8-359 0 0-230.8 119-167 375.9 63.8 256.8 163.1 331.5 280.9 316.4 117.8-15.1 224.6-268 70.5-394.4 0 0 182.2 92.9 121.9 280 0 0 224.9-38.6 286.5 192.2 0 0-76.8-162.9-297.6-65.5-54.5 24.1-123.2 63.4-163.3 126.5-54.6 86-61.1 196.7 48.2 192.4 8.5-0.3 127.8 5.3 234.6-14.3 86-15.8 208.4-104.9 253.7-32.2 27 43.4 40.5-12.5 87.3 23.4 46.8 35.9 30 77.9 3.7 130.7-26.4 52.9-83.8 25.3-83.8 25.3 68.3 5 79.6-39.1 60.2-85.1-19.3-46.1-49.5-28.5-54.2 9.5-4.8 38-26.9 47.5-26.9 47.5 21.4-48.7-0.6-62.3-22.6-92-22-29.7-63.9-20.7-63.9-20.7 28.6 24.5 39.9 54.5 27.5 112.1-12.4 57.6 5.3 96.7 47.6 100 42.3 3.4 58.8-33.2 58.8-33.2-21.4 81.8-99.5 77-132.1 24.3-32.5-52.6 5.7-78.2-6.4-131.3-12.1-53.1-60.4-46.9-57.5-11.5 3 35.3 0.7 54.3 7.8 79 7.2 24.6 26.7 31.8 26.7 31.8-57.1-8.8-38.1-46.6-51.7-88.9-13.5-42.2-24.7-54.3-58.9-40.8-34.2 13.6-36.4 25.5-26.5 75.2 9.9 49.8 50.7 55.1 101.3 94.2 50.7 39 60.2 52.2 36.8 99.4-23.3 47.2-105.2 89.2-105.2 89.2 0 0 13.9-11.4 50.3-53.7 36.3-42.4 14.3-73-20.5-104.8-34.7-31.9-38.8-20.7-62.7-67.2-23.8-46.4-44.3-62-37.9-3.9 6.4 58.2 8.6 53.5 44 75.5 35.4 22 44.7 41.5 27.9 83.5-16.8 42-64.3 32-64.3 32 45-21 74.7-59-6.1-96.5-80.9-37.6-67.1-74.8-83.1-131-16-56.2-19.8-66.5-40.6-68.7-20.7-2.2-46.1 10.4-46.1 10.4 29.7 64.6-81.5 102.2 53.9 157.8 20.6 8.5 23.5 2.8 39.1 39.4 15.7 36.7 44.3 54.1 44.3 54.1-37.9-4.8-52.6-32.6-73-48.2-20.5-15.6-38.1-13.7-33.5 28.6 4.7 42.3-3.7 79.8 41.5 101.6 45.2 21.8 146.5-14.3 146.5-14.3-46.4 39.9-126.1 54-179.5 38.5-53.5-15.6-49.7-22.2-42.8-64.9 6.9-42.7-10.4-110.4-10.4-110.4l-40 25.8c47.7-89.5 10.8-112.7-37.9-191.2-23.9-38.4-34.2-34.6-37.6-9.2-3.5 25.3 8.2 33.9 26 98.8 17.9 65-43.1 70.8-50.5 133.1-7.4 62.4 51 82.8 51 82.8-109.3-29.1-84.7-121.9-65.1-146.3 19.6-24.5 33.8-57.3 14.4-104.2-19.4-46.9-36.3-37.9-63.4-1.1-27.2 36.9-79.1 59.6-79.1 59.6 8 41 9.7 48 12.5 113.7 2.7 65.7 43.8 98.7 43.8 98.7-66.7-22.1-70.9-77-79.2-119.8-8.3-42.8-37.1-70-37.1-70-30.5 23-74.8 18.1-81.1 50-6.3 31.9 6.5 42.1 6.5 42.1-49.6-28.5-60.8-81.7 20.1-109.3 80.8-27.6 113.8-84.7 113.8-84.7-69.1 51.6-207.5-3.3-219.9 101.7-37.7-133.9 163.7-124.2 195.1-140.1 62.1-31.2 39.9-261.4 29.9-317.6z"/>
			<path id="&lt;Path&gt;" class="s1" d="m578.3 385.4c-4.1 32.3 9.4 65.7 38 85.5 25.8 18 57.8 20.4 85 9.5l-72.3-59.8 81.3 46.8c0.8-29.3-12.7-58.4-38.6-76.4-28.6-19.8-64.6-20.8-93.4-5.6z"/>
			<path id="&lt;Path&gt;" class="s1" d="m413.7 381.4c-4.2 32.3 9.3 65.7 37.9 85.5 25.9 18 57.9 20.5 85.1 9.5l-72.3-59.8 81.3 46.8c0.7-29.3-12.8-58.4-38.7-76.4-28.6-19.8-64.6-20.8-93.3-5.6z"/>
			<path id="&lt;Path&gt;" class="s1" d="m602.9 256.7c-4.1 32.3 9.4 65.7 38 85.5 25.9 17.9 57.9 20.4 85 9.4l-72.3-59.7 81.3 46.7c0.8-29.3-12.7-58.4-38.6-76.3-28.6-19.8-64.6-20.8-93.4-5.6z"/>
			<path id="&lt;Path&gt;" class="s1" d="m791.7 105.7c27.5 17.3 44.7 49 41.8 83.7-2.6 31.4-21 57.6-46.8 71.6l-0.1-93.8-15.7 92.5c-23-18-36.9-47-34.3-78.4 2.9-34.6 25.1-63 55.1-75.6z"/>
			<path id="&lt;Path&gt;" class="s1" d="m883.7 105.5c16.1 10.1 26.1 28.6 24.4 48.9-1.5 18.3-12.3 33.6-27.3 41.8l-0.1-54.8-9.1 54c-13.5-10.5-21.6-27.4-20.1-45.7 1.7-20.3 14.6-36.9 32.2-44.2z"/>
			<path id="&lt;Path&gt;" class="s1" d="m954.2 53.1c16.1 10.1 26.1 28.6 24.4 48.9-1.5 18.3-12.3 33.7-27.3 41.8l-0.1-54.7-9.1 54c-13.5-10.6-21.6-27.5-20.1-45.8 1.7-20.2 14.7-36.8 32.2-44.2z"/>
			<path id="&lt;Path&gt;" class="s1" d="m1121.9 90.7c-1.2 32.5-20 63.2-51.5 78.1-28.5 13.4-60.4 10.6-85.4-4.7l81.1-47.1-87.9 32.8c4.1-29.1 22.3-55.5 50.7-69 31.5-14.8 67.2-9.8 93 9.9z"/>
			<path id="&lt;Path&gt;" class="s1" d="m906.4 486.1c19.8-25.9 24.7-61.6 9.9-93-13.4-28.5-39.9-46.6-68.9-50.7l32.7 87.9-47-81.2c-15.4 25-18.2 57-4.7 85.5 14.8 31.4 45.5 50.3 78 51.5z"/>
			<path id="&lt;Path&gt;" class="s1" d="m948.3 321.5c-2.5-18.8-15.2-35.6-34.3-42.5-17.3-6.2-35.7-2.8-49.4 7.5l49.8 22.8-52.9-14.1c4 16.7 16 31 33.3 37.2 19.1 6.9 39.6 2 53.5-10.9z"/>
			<path id="&lt;Path&gt;" class="s1" d="m996.4 251.2c-7.3-17.5-23.9-30.5-44.1-32.1-18.4-1.6-35.3 6.5-45.8 20l54 9.1-54.8 0.1c8.2 15.1 23.5 25.8 41.9 27.3 20.2 1.7 38.7-8.3 48.8-24.4z"/>
			<path id="&lt;Path&gt;" class="s1" d="m277.1 489.8c12.6 30 41 52.2 75.6 55.1 31.4 2.6 60.4-11.3 78.4-34.4l-92.5-15.6 93.8-0.1c-14-25.8-40.2-44.2-71.6-46.8-34.7-2.9-66.4 14.3-83.7 41.8z"/>
			<path id="&lt;Path&gt;" class="s1" d="m206.3 663.5c25.9 19.7 61.6 24.7 93 9.8 28.5-13.4 46.7-39.9 50.7-68.9l-87.9 32.7 81.2-47c-25-15.3-57-18.1-85.5-4.7-31.4 14.8-50.3 45.6-51.5 78.1z"/>
			<path id="&lt;Path&gt;" class="s1" d="m694 813.1c-27.5-17.3-44.7-49-41.8-83.6 2.6-31.4 21-57.7 46.8-71.7l0.1 93.8 15.6-92.5c23.1 18.1 37 47 34.4 78.4-2.9 34.7-25.1 63.1-55.1 75.6z"/>
			<path id="&lt;Path&gt;" class="s1" d="m526 709.3c-7.2-31.7 3-66.3 29.6-88.7 24-20.4 55.6-25.9 83.7-17.6l-66.2 66.4 76.4-54.3c3.6 29.1-7.1 59.3-31.1 79.7-26.5 22.4-62.3 26.9-92.4 14.5z"/>
			<path id="&lt;Path&gt;" class="s1" d="m399.9 719.5c-15.2-28.7-14.3-64.7 5.5-93.3 18-25.9 47.1-39.4 76.4-38.7l-46.8 81.3 59.8-72.3c11 27.2 8.5 59.2-9.5 85.1-19.8 28.6-53.2 42.1-85.4 37.9z"/>
			<path id="&lt;Path&gt;" class="s1" d="m979.4 586.2c-4.4-32.2-26.1-61-58.8-72.8-29.7-10.6-61.2-4.7-84.6 12.9l85.3 39-90.7-24.1c6.9 28.5 27.5 53.1 57.1 63.8 32.8 11.7 67.8 3.3 91.7-18.8z"/>
			<path id="&lt;Path&gt;" class="s1" d="m1023.9 683.6c-12.5-30.1-40.9-52.2-75.6-55.1-31.4-2.6-60.3 11.2-78.3 34.3l92.4 15.7-93.8 0.1c14 25.8 40.3 44.2 71.7 46.8 34.6 2.9 66.3-14.3 83.6-41.8z"/>
			<path id="&lt;Path&gt;" class="s1" d="m1087.8 710.8c-30.1-12.3-65.9-7.9-92.4 14.6-24.1 20.3-34.8 50.6-31.2 79.7l76.5-54.4-66.2 66.4c28 8.4 59.7 2.8 83.7-17.5 26.5-22.5 36.8-57.1 29.6-88.8z"/>
			<path id="&lt;Path&gt;" class="s1" d="m1132.1 634.6c31.1 9.6 55.9 35.8 62.1 70 5.6 31-5.4 61.1-26.6 81.3l-24.5-90.6 8.9 93.4c-27-11.4-47.9-35.8-53.5-66.8-6.2-34.2 7.9-67.4 33.6-87.3z"/>
			<path id="&lt;Path&gt;" class="s1" d="m1140 573.4c-2.4 18.8 5.5 38.3 22.2 49.9 15.1 10.5 33.8 11.9 49.6 5.5l-42.2-34.9 47.5 27.3c0.5-17.1-7.5-34.1-22.6-44.6-16.6-11.5-37.7-12.1-54.5-3.2z"/>
			<path id="&lt;Path&gt;" class="s1" d="m1092.7 538.9c11.6 15 31 23.2 50.9 19.6 18.1-3.3 32.4-15.5 39.1-31.2l-54.6 5.1 52.9-14.2c-11.8-12.4-29.4-18.9-47.5-15.6-20 3.6-35.2 18.1-40.8 36.3z"/>
			<path id="&lt;Path&gt;" class="s1" d="m1018.9 365.4c28.7-15.2 64.8-14.3 93.3 5.5 25.9 18 39.5 47.1 38.7 76.4l-81.3-46.8 72.3 59.8c-27.2 11-59.2 8.5-85.1-9.5-28.5-19.8-42.1-53.2-37.9-85.4z"/>
			<path id="&lt;Path&gt;" class="s1" d="m1222 321.1c27.6 17.3 44.7 49 41.9 83.6-2.7 31.4-21.1 57.7-46.8 71.7l-0.2-93.8-15.6 92.5c-23.1-18.1-36.9-47-34.3-78.4 2.8-34.7 25-63.1 55-75.6z"/>
			<path id="&lt;Path&gt;" class="s1" d="m1361.8 409.5c15.2 28.8 14.2 64.8-5.6 93.4-17.9 25.8-47 39.4-76.3 38.6l46.7-81.3-59.7 72.3c-11-27.2-8.5-59.2 9.4-85 19.8-28.6 53.2-42.2 85.5-38z"/>
			<path id="&lt;Path&gt;" class="s1" d="m1459 600.4c-12.5-30.1-41-52.2-75.6-55.1-31.4-2.6-60.4 11.2-78.4 34.3l92.5 15.6-93.8 0.2c14 25.8 40.3 44.2 71.6 46.8 34.7 2.9 66.4-14.3 83.7-41.8z"/>
			<path id="&lt;Path&gt;" class="s1" d="m1375.6 657.1c4.2 18.6-1.8 38.7-17.2 51.9-14.1 11.8-32.5 15.1-48.9 10.2l38.6-38.8-44.6 31.8c-2.1-17 4.1-34.7 18.2-46.6 15.5-13.1 36.4-15.7 53.9-8.5z"/>
			<path id="&lt;Path&gt;" class="s1" d="m1536.3 652.5c-25.9-19.7-61.6-24.7-93-9.8-28.5 13.4-46.6 39.9-50.7 68.9l87.9-32.7-81.2 47c25 15.3 57 18.1 85.5 4.7 31.4-14.8 50.3-45.6 51.5-78.1z"/>
			<path id="&lt;Path&gt;" class="s1" d="m1261.8 1025.9c-4-29.7-24-56.1-54.1-67-27.3-9.7-56.3-4.3-77.8 11.9l78.4 35.9-83.4-22.2c6.3 26.2 25.3 48.9 52.6 58.7 30.1 10.8 62.4 3.1 84.3-17.3z"/>
			<path id="&lt;Path&gt;" class="s1" d="m1317 951.3c-2.8-20.7-16.8-39.2-37.8-46.8-19.1-6.9-39.4-3.1-54.5 8.3l54.9 25.1-58.3-15.5c4.4 18.3 17.7 34.1 36.7 41 21.1 7.6 43.7 2.2 59-12.1z"/>
			<path id="&lt;Path&gt;" class="s1" d="m1419.5 949.5c3.1-24.1-7-49.2-28.4-64-19.4-13.5-43.4-15.3-63.8-7.1l54.2 44.8-60.9-35.1c-0.6 22 9.6 43.8 28.9 57.2 21.5 14.9 48.4 15.6 70 4.2z"/>
			<path id="&lt;Path&gt;" class="s1" d="m1446.8 1043.9c32.2-4.3 61-26 72.7-58.8 10.7-29.6 4.8-61.1-12.8-84.5l-39.1 85.2 24.2-90.6c-28.5 6.8-53.1 27.5-63.8 57.1-11.7 32.7-3.3 67.8 18.8 91.6z"/>
			<path id="&lt;Path&gt;" class="s1" d="m1640.4 1098.6c19.8-25.8 24.8-61.5 9.9-93-13.4-28.4-39.9-46.6-68.9-50.7l32.7 87.9-47-81.1c-15.3 25-18.1 56.9-4.7 85.4 14.8 31.5 45.5 50.3 78 51.5z"/>
			<path id="&lt;Path&gt;" class="s1" d="m1659.6 784.7c-12.5-30-40.9-52.2-75.6-55.1-31.4-2.6-60.3 11.3-78.3 34.4l92.4 15.6-93.8 0.2c14 25.7 40.3 44.1 71.7 46.7 34.7 2.9 66.3-14.3 83.6-41.8z"/>
			<path id="&lt;Path&gt;" class="s1" d="m1697.8 946.8c4.1-32.2-9.4-65.6-38-85.4-25.9-18-57.9-20.5-85-9.5l72.3 59.8-81.3-46.8c-0.8 29.3 12.7 58.4 38.6 76.3 28.6 19.9 64.6 20.8 93.4 5.6z"/>
			<path id="&lt;Path&gt;" class="s1" d="m686.4 921.5c-7.3-31.7 3-66.2 29.5-88.7 24.1-20.3 55.7-25.9 83.8-17.6l-66.2 66.5 76.4-54.4c3.6 29.1-7.1 59.4-31.2 79.7-26.5 22.5-62.3 26.9-92.3 14.5z"/>
			<path id="&lt;Path&gt;" class="s1" d="m647.1 1128.3c-11.6-50.6 4.8-105.6 47.1-141.4 38.3-32.5 88.6-41.3 133.4-28l-105.5 105.8 121.8-86.6c5.7 46.4-11.3 94.6-49.6 127-42.3 35.8-99.3 42.9-147.2 23.2z"/>
			<path id="&lt;Path&gt;" class="s2" d="m2096.6 1086.9c0 0-130.9 262.4-287.2 382.7 0 0-53.7-18.8-68.7-79.7-15.1-60.9 74.5-152.3 0.5-267.6l-16.2 101.7-67.4 107-72.3 145 35.1 132.6 143.7 198.5c0 0 153.1-121.9 156.3-134.4 3.1-12.5 72.5-283 72.5-283 0 0 160.3-302.8 103.7-302.8z"/>
			<path id="&lt;Path&gt;" class="s0" d="m448.7 1213.1c0 0 55.2 67.8 191.6 36.6 136.4-31.3 133.2-109.4 258.2-131.3 125-21.9 253.2-45.7 318.8 46.9 65.6 92.6 39.5 92.6 175 12.9 135.4-79.7 140.6-43.4 209.4 0 68.7 43.3 103.2 33.7 121.4-11.1l20.7 5.2-9.7 51.6-33.6 49.6-41.8 55.1-26.2 53.5-30.1 89-9.4 102.4-348.7 333.6h-452.1l-343.5-203.1 114.8-146 2.2-138.4-36.7-63.3-80.3-109.4c0 0-14.3-44.5 0-33.8z"/>
			<path id="&lt;Path&gt;" class="s0" d="m1246.2 2188.8c-36.3-12.6-64.7 1.3-91.9 14.6-27.2 13.4-53.4 26.2-86.8 19.7-28-5.4-62.2-15.6-89.7-30.9-16.8-9.4-31.3-20.8-41.1-34.5-10.7-15.1-15.6-32.5-11.7-52.3 1.6-8.2 4.7-16.8 9.7-25.7 13-23.2 27.7-43.5 41.7-60.4 15.9-19.2 30.9-33.9 41.5-43.5-4.2-7.1-7.6-14.2-9.9-21.4-23.9-74.5 14.7-114.2 68.6-135.6 35.9-14.3 78.6-19.7 112-22.2-60.2-74.1-115.3-153.2-115.5-153.5l-5.1-7.3 3.5-8c15.6-36.5 44.3-63.8 77.5-81.5 22.7-12.1 47.5-19.7 71.8-22.9-51.4-53.1-98.6-115.3-98.8-115.5l-8-10.4 8.6-9.9q11.4-13 22.6-23.5c44.7-42.2 89.4-58.2 132.4-55.7 42.6 2.5 82.6 23.2 118.6 54.5 8.7 7.6 17 15.7 25.1 24.3 52.8 56.1 126.7 88.4 164.1 102.2-0.9-18.4 1.3-38.3 7.3-59.7 19.2-67.7 54-112.1 83.9-150.1 36.9-47 65.2-83.1 35.9-143.3-30.7-62.9-39.1-110.5-30.3-147.5 9.4-38.9 36.7-64.9 77.1-83.3-35.8 31.1-40.8 68.7-46.1 90.6-7.1 29.8 0.8 70.4 28 126.2 38.1 78.2 4.4 121.1-39.5 177-28.1 35.8-60.8 77.5-78.2 139-35 123.7 91.2 187.7 122.5 201.4 52-30.9 108.4-98.1 164.1-180 47.2-69.4 93.8-149.4 137-227.4q0.4-1.1 1.1-2.1c10.3-18.6 20.4-37.1 30.2-55.3 86.3-159.4-152-337.9-152-337.9 0.8 0.5 291.1 148 180.1 353-9.4 17.5-19.1 35.2-28.9 53 0 23 0.2 143.8 5.8 351.6 2.7 103.7-16.7 177.1-46.6 228-40.9 69.8-101.3 97.3-151.9 102.3h-0.5c-37.2 3.6-68.2 18.5-95.9 39.3-28.6 21.5-54.1 49.7-79.3 78.7-46.5 53.6-63.9 54.3-137.4 57.4l-7.7 0.3h-0.5c-39.9 2.7-77.4 22.2-129.5 49.2-22.7 11.8-48.1 24.9-78.7 39.3-47.6 22.3-80.3 17.7-109.2-0.3z"/>
			<path id="&lt;Path&gt;" class="s3" d="m1265.6 1522.9l0.9 0.1c51.1 6.2 98.4 66.4 150.1 132.4 38.4 49 79.5 101.3 123.8 133.7 41.9 30.7 91 58 147.8 77 56.6 19 121.1 29.6 193.8 27 42.1-4.2 92.6-27.5 127.3-86.7 27.2-46.1 44.8-113.9 42.2-211.1-3.7-139.4-5.1-238.1-5.6-295.7-35 61.6-71.9 122.8-109.4 177.9-60.7 89.3-123 162.2-181.8 194l-6.4 3.5-6.9-2.7c-0.4-0.1-121.5-45.7-150.1-147.1-29.9-9.7-126.6-45.4-193.3-116.2-7.5-7.9-15.1-15.3-22.8-22.1-30.9-26.9-64.5-44.6-99.3-46.6-34.5-2-71.2 11.5-108.9 47q-5.8 5.5-11.6 11.6c18.5 23.6 65.5 81.8 110.2 124z"/>
			<path id="&lt;Path&gt;" class="s3" d="m1560.9 2068.8l0.6-0.1q0.6 0 1.2 0l7.8-0.3c62.3-2.6 77.1-3.2 114.6-46.4 26.3-30.3 53.2-59.9 84.3-83.3 8.1-6.1 16.5-11.8 25.1-16.9-41.8-4.6-80.6-13.4-116.5-25.4-60.2-20.2-112.2-49.1-156.5-81.6-47.9-35-90.3-89.1-130-139.7-47.5-60.5-90.9-115.8-128.7-120.3-31.2-3.8-67.5 2.9-98.8 19.6-24.7 13.2-46.3 32.7-59.4 58 17.1 24.2 73 102.3 128.5 167.9l0.2 0.3 0.1 0.1c12.8 15.2 25.6 29.7 37.9 42.7 22.5 23.9 43.6 54.1 65.2 84.9 50.4 72 103.6 147.9 178.3 142.9 16.9-1.1 32.4-1.8 46.1-2.4z"/>
			<path id="&lt;Path&gt;" class="s3" d="m1036.9 2001.7c-9.6 8.8-22.5 21.7-36 38-12.9 15.5-26.4 34.1-38.3 55.5-3.2 5.8-5.3 11.2-6.3 16.3-2 10.4 0.7 19.6 6.5 27.7 6.7 9.5 17.6 17.9 30.5 25.1 24.2 13.5 54.8 22.5 80.2 27.5 23.1 4.4 44.6-6.1 66.8-17 19.7-9.6 39.8-19.5 63-22.4-5.2-5.3-10.5-10.9-15.9-16.6-18.2-19-38-39.7-62.3-57.7-25.1-18.7-50.4-38.3-71.1-58.5-6.1-5.9-11.9-11.9-17.1-17.9z"/>
			<path id="&lt;Path&gt;" class="s3" d="m1050.4 1967.4q0.4 0.5 0.9 1 1.1 1.4 1.8 2.8c6.4 8.4 14.3 17 23.1 25.6 19.6 18.9 43.8 37.7 67.9 55.6 26.6 19.7 47.4 41.5 66.4 61.4 40.1 42 71.2 74.6 131.4 46.4 28.9-13.6 54.6-26.9 77.5-38.8 17.2-8.8 32.9-17 47.7-24-65.1-20.1-111.9-86.8-156.7-150.8-20.8-29.7-41.1-58.8-62.4-81.3-11.1-11.8-22.6-24.7-34.1-38.3-32.7 1.6-85 5.3-125.6 21.4-38.8 15.5-66.7 43.7-49.9 96.2 2.4 7.4 6.5 15 12 22.8z"/>
			<path id="&lt;Path&gt;" class="s2" d="m1050.4 1967.4q0.4 0.5 0.9 1 1.1 1.4 1.8 2.8c6.4 8.4 14.3 17 23.1 25.6 19.6 18.9 43.8 37.7 67.9 55.6 26.6 19.7 47.4 41.5 66.4 61.4 40.1 42 71.2 74.6 131.4 46.4 28.9-13.6 54.6-26.9 77.5-38.8 17.2-8.8 32.9-17 47.7-24-65.1-20.1-111.9-86.8-156.7-150.8-20.8-29.7-41.1-58.8-62.4-81.3-11.1-11.8-22.6-24.7-34.1-38.3 0 0 55.8 109.8 74.5 171.9 18.8 62.1 77.4 56.6 53.1 94.9-24.2 38.3-57.7 51.8-97.9 14.7-40.3-37-56.3-83.8-112.5-106.8-56.2-23-84.3-74.8-84.6-124.7-12.9 16.2-17.6 38.1-8.1 67.6 2.4 7.4 6.5 15 12 22.8z"/>
			<path id="&lt;Path&gt;" class="s2" d="m71.4 1086.9c0 0 130.9 262.4 287.2 382.7 0 0 53.7-18.8 68.7-79.7 15.1-61-74.5-152.3-0.5-267.6l16.2 101.7 67.4 107 72.3 145-35.1 132.6-143.7 198.5c0 0-153.1-121.9-156.3-134.4-3.1-12.5-72.5-283-72.5-283 0 0-160.3-302.8-103.7-302.8z"/>
			<path id="&lt;Path&gt;" class="s0" d="m921.8 2188.8c36.3-12.6 64.7 1.3 91.9 14.6 27.2 13.4 53.4 26.2 86.8 19.7 28-5.5 62.2-15.6 89.7-30.9 16.8-9.4 31.3-20.8 41-34.5 10.8-15.1 15.7-32.5 11.8-52.3-1.6-8.2-4.7-16.8-9.7-25.7-13-23.2-27.7-43.5-41.7-60.4-15.9-19.2-30.9-33.9-41.5-43.5 4.2-7.1 7.6-14.2 9.9-21.4 23.9-74.5-14.7-114.2-68.6-135.6-35.9-14.3-78.6-19.7-112-22.2 60.2-74.1 115.3-153.2 115.5-153.5l5.1-7.3-3.5-8c-15.6-36.5-44.3-63.8-77.6-81.5-22.6-12.1-47.4-19.7-71.8-22.9 51.5-53.1 98.7-115.3 98.9-115.6l8-10.3-8.6-9.9q-11.4-13-22.6-23.5c-44.7-42.2-89.4-58.2-132.4-55.7-42.6 2.5-82.6 23.2-118.6 54.5-8.7 7.6-17 15.7-25.1 24.3-52.8 56.1-126.7 88.4-164.1 102.2 0.9-18.4-1.3-38.3-7.3-59.7-19.2-67.7-54-112.1-83.9-150.1-36.9-47-65.2-83.1-35.9-143.3 30.7-62.9 39.1-110.5 30.3-147.6-9.4-38.8-36.7-64.8-77.1-83.2 35.8 31.1 40.8 68.7 46.1 90.6 7.1 29.8-0.8 70.4-28 126.2-38.1 78.2-4.4 121.1 39.5 177 28.1 35.8 60.8 77.5 78.2 139 35 123.7-91.3 187.7-122.5 201.4-52-30.9-108.4-98.1-164.1-180-47.2-69.4-93.8-149.4-137-227.4q-0.5-1.1-1.1-2.1c-10.3-18.6-20.4-37.1-30.2-55.3-86.3-159.4 152-337.9 152-337.9-0.8 0.5-291.1 148-180.1 353 9.4 17.5 19 35.2 28.9 53 0 23-0.2 143.8-5.8 351.6-2.7 103.7 16.7 177.1 46.6 227.9 40.9 69.9 101.3 97.4 151.9 102.4h0.5c37.2 3.6 68.2 18.5 95.9 39.3 28.6 21.5 54.1 49.7 79.3 78.7 46.5 53.6 63.9 54.3 137.4 57.4l7.7 0.3h0.5c39.9 2.7 77.4 22.2 129.5 49.2 22.7 11.8 48.1 24.9 78.7 39.3 47.6 22.3 80.3 17.7 109.2-0.3z"/>
			<path id="&lt;Path&gt;" class="s3" d="m902.4 1522.9l-0.9 0.1c-51.1 6.2-98.4 66.4-150.1 132.4-38.4 49-79.5 101.3-123.8 133.7-41.9 30.7-91 58-147.8 77-56.6 19-121.1 29.6-193.8 27-42.1-4.2-92.6-27.5-127.4-86.7-27.1-46.1-44.7-113.9-42.1-211.1 3.7-139.5 5.1-238.1 5.6-295.7 35 61.6 71.9 122.8 109.4 177.9 60.7 89.3 123 162.2 181.8 194l6.4 3.5 6.9-2.7c0.4-0.1 121.5-45.7 150.1-147.1 29.9-9.8 126.6-45.4 193.3-116.2 7.5-7.9 15.1-15.3 22.8-22.1 30.9-26.9 64.5-44.6 99.3-46.6 34.5-2 71.2 11.5 108.9 47q5.8 5.5 11.6 11.6c-18.6 23.6-65.5 81.8-110.2 124z"/>
			<path id="&lt;Path&gt;" class="s3" d="m607.1 2068.8l-0.6-0.1q-0.6 0-1.2 0l-7.8-0.3c-62.3-2.6-77.1-3.2-114.6-46.4-26.3-30.3-53.2-59.9-84.3-83.3-8.1-6.1-16.5-11.8-25.1-16.9 41.8-4.6 80.6-13.4 116.5-25.4 60.2-20.2 112.2-49.1 156.5-81.6 47.9-35 90.3-89.1 130-139.7 47.5-60.5 90.9-115.8 128.7-120.3 31.2-3.8 67.5 2.9 98.8 19.6 24.7 13.2 46.3 32.7 59.4 58-17.1 24.2-73 102.3-128.5 167.9l-0.2 0.3-0.1 0.1c-12.8 15.2-25.6 29.7-37.9 42.7-22.5 23.9-43.6 54.1-65.2 84.9-50.4 72-103.6 147.9-178.3 142.9-17-1.1-32.4-1.8-46.1-2.4z"/>
			<path id="&lt;Path&gt;" class="s2" d="m607.1 2068.8l-0.6-0.1q-0.6 0-1.2 0l-7.8-0.3c-62.3-2.6-77.1-3.2-114.6-46.4-26.3-30.3-53.2-59.9-84.3-83.3-8.1-6.1-16.5-11.8-25.1-16.9 41.8-4.6 80.6-13.4 116.5-25.4 60.2-20.2 112.2-49.1 156.5-81.6 47.9-35 90.3-89.1 130-139.7 15.3-19.4 30.1-38.3 44.5-55.2-0.5 0.8-69.8 110.2-146.1 208.3-76.6 98.4-201.5 104.6-146.9 159.3 54.7 54.7 130.6 51.6 203.6 0 73-51.5 153.6-183.4 246.9-240.9-14.1 17.9-28.8 36.3-43.6 53.7l-0.2 0.3-0.1 0.1c-12.8 15.2-25.6 29.7-37.9 42.7-22.5 23.9-43.6 54.1-65.2 84.9-50.4 72-103.6 147.9-178.3 142.9-17-1.1-32.4-1.8-46.1-2.4z"/>
			<path id="&lt;Path&gt;" class="s3" d="m1131.1 2001.7c9.6 8.8 22.5 21.7 36 38 12.9 15.5 26.4 34.1 38.3 55.5 3.2 5.8 5.3 11.2 6.3 16.3 2 10.4-0.7 19.6-6.5 27.7-6.7 9.5-17.6 17.9-30.5 25.1-24.2 13.5-54.8 22.5-80.2 27.4-23.1 4.5-44.6-6-66.8-16.9-19.7-9.6-39.8-19.5-63-22.4 5.2-5.3 10.5-10.9 15.9-16.6 18.2-19 38-39.7 62.3-57.7 25.1-18.7 50.3-38.3 71.1-58.5 6.1-5.9 11.9-11.9 17.1-17.9z"/>
			<path id="&lt;Path&gt;" class="s2" d="m1131.1 2001.7c9.6 8.8 22.5 21.7 36 38 12.9 15.5 26.4 34.1 38.3 55.5 3.2 5.8 5.3 11.2 6.3 16.3 2 10.4-0.7 19.6-6.5 27.7-6.7 9.5-17.6 17.9-30.5 25.1-8.8 4.9-18.5 9.3-28.5 13 6.4-20.6 3.2-42.7 20.9-62.4 26.6-29.7 0-43.4-26.7-65.2-26.7-21.8-27.3-21-68.6 21.8-41.3 42.7-39.1 62.9-18.8 87.9 20.3 25 54.9 29.4 54.9 29.4q-6.9 1.7-13.4 2.9c-23.1 4.5-44.6-6-66.8-16.9-19.7-9.6-39.8-19.5-63-22.4 5.2-5.3 10.5-10.9 15.9-16.6 18.2-19 38-39.7 62.3-57.7 25.1-18.7 50.3-38.3 71.1-58.5 6.1-5.9 11.9-11.9 17.1-17.9z"/>
			<path id="&lt;Path&gt;" class="s3" d="m1117.6 1967.4q-0.5 0.5-0.9 1-1.1 1.3-1.8 2.8c-6.4 8.4-14.3 17-23.1 25.5-19.6 19-43.8 37.8-67.9 55.7-26.6 19.7-47.4 41.5-66.4 61.4-40.1 42-71.2 74.6-131.4 46.4-28.9-13.6-54.6-26.9-77.5-38.8-17.2-8.9-32.9-17-47.7-24 65.1-20.1 111.9-86.9 156.7-150.8 20.8-29.7 41.1-58.8 62.4-81.3 11.1-11.8 22.6-24.7 34.1-38.3 32.6 1.6 85 5.3 125.6 21.4 38.8 15.5 66.7 43.7 49.9 96.2-2.4 7.4-6.5 15-12 22.8z"/>
			<path id="&lt;Path&gt;" class="s2" d="m1117.6 1967.4q-0.5 0.5-0.9 1-1.1 1.3-1.8 2.8c-6.4 8.4-14.3 17-23.1 25.5-19.6 19-43.8 37.8-67.9 55.7-26.6 19.7-47.4 41.5-66.4 61.4-40.1 42-71.2 74.6-131.4 46.4-28.9-13.6-54.6-26.9-77.5-38.8-17.2-8.9-32.9-17-47.7-24 65.1-20.1 111.9-86.9 156.7-150.8 20.8-29.7 41.1-58.8 62.4-81.3 11.1-11.8 22.6-24.7 34.1-38.3 0 0-55.8 109.8-74.5 171.9-18.8 62.1-77.4 56.6-53.1 94.9 24.2 38.3 57.7 51.8 97.9 14.7 40.3-37 56.3-83.8 112.5-106.8 56.2-23 84.3-74.8 84.6-124.7 12.9 16.2 17.6 38.1 8.1 67.6-2.4 7.4-6.5 15-12 22.8z"/>
			<path id="&lt;Path&gt;" class="s2" d="m560.1 1643c51.6-67.2 60.5-134.5 60.5-134.5-19.1 8.2-34.7 13.7-43.9 16.7-3.3 11.7-7.8 22.6-13.2 32.8q-2.2 4.2-4.7 8.3c-10.8 18.1-24.5 33.7-38.8 47-43.3 40.2-93.1 58.9-93.4 59l-6.9 2.7-6.4-3.5c-58.8-31.8-121.1-104.7-181.8-194-19-27.9-37.9-57.5-56.4-87.8-18-29.5-35.7-59.8-53-90.1-0.5 57.6-1.9 156.2-5.6 295.7-2.6 97.2 15 165 42.1 211.1 34.8 59.2 85.3 82.5 127.4 86.7 72.7 2.6 137.2-8 193.8-27 49.8-16.6 93.6-39.7 131.9-65.8q8.1-5.5 15.9-11.2c36.8-26.9 71.3-67.6 104-108.6-55.9 31.3-117.8 61.2-180 84.3-49.1 18.1-98.5 32.1-145.5 39.2q-2.6 0.4-5.1 0.7c-51.8 7.4-100.5 6.2-142.5-7-129.4-40.6-128.1-242.2-103.1-294.9 10.1-21.3 29.4-7.4 54.2 21.5 36.7 42.7 85.5 118.1 134.9 160.9 42.7 37.1 85.1 42.6 123.1 29.9q2-0.6 3.9-1.3c34.1-12.5 64.6-39.4 88.6-70.8z"/>
			<path id="&lt;Path&gt;" class="s2" d="m1560.9 2068.8l0.6-0.1q0.6 0 1.2 0l7.8-0.3c62.3-2.6 77.1-3.2 114.6-46.4 26.3-30.3 53.2-59.9 84.3-83.3 8.1-6.1 16.5-11.8 25.1-16.9-41.8-4.6-80.6-13.4-116.5-25.4-60.2-20.2-112.2-49.1-156.5-81.6-47.9-35-90.3-89.1-130-139.7-15.3-19.4-30.1-38.3-44.5-55.2 0.5 0.8 69.8 110.2 146.1 208.3 76.6 98.4 201.5 104.6 146.9 159.3-54.7 54.7-130.6 51.6-203.6 0-73-51.5-153.6-183.4-246.9-240.9 14.1 18 28.8 36.3 43.6 53.7l0.2 0.3 0.1 0.1c12.8 15.2 25.6 29.7 37.9 42.7 22.5 23.9 43.6 54.1 65.2 84.9 50.4 72 103.6 147.9 178.3 142.9 16.9-1.1 32.4-1.8 46.1-2.4z"/>
			<path id="&lt;Path&gt;" class="s2" d="m1607.9 1643c-51.6-67.2-60.5-134.5-60.5-134.5 19.1 8.3 34.7 13.7 43.9 16.7 3.3 11.7 7.8 22.6 13.2 32.8q2.2 4.2 4.7 8.3c10.8 18.1 24.5 33.7 38.8 47.1 43.3 40.1 93.1 58.8 93.4 58.9l6.9 2.7 6.4-3.5c58.8-31.8 121.1-104.7 181.8-194 19-27.9 37.9-57.5 56.4-87.8 18-29.5 35.7-59.8 53-90.1 0.5 57.6 1.9 156.3 5.6 295.7 2.6 97.2-15 165-42.2 211.1-34.7 59.2-85.2 82.5-127.3 86.7-72.7 2.6-137.2-8-193.8-27-49.8-16.6-93.6-39.7-131.9-65.8q-8.1-5.5-15.9-11.2c-36.8-26.9-71.3-67.6-104-108.6 55.9 31.3 117.8 61.2 180 84.3 49.1 18.1 98.5 32.1 145.5 39.2q2.5 0.4 5.1 0.8c51.8 7.3 100.5 6.1 142.4-7.1 129.5-40.6 128.2-242.2 103.2-294.9-10.1-21.3-29.4-7.4-54.2 21.5-36.7 42.7-85.5 118.1-134.9 160.9-42.7 37.1-85.1 42.6-123.1 29.9q-2-0.6-3.9-1.3c-34.1-12.5-64.6-39.4-88.6-70.8z"/>
		</g>
	</g>
</svg>